<?xml version="1.0" encoding="UTF-8" standalone="no"?><!DOCTYPE svg PUBLIC "-//W3C//DTD SVG 1.1//EN" "http://www.w3.org/Graphics/SVG/1.1/DTD/svg11.dtd"><svg width="100%" height="100%" viewBox="0 0 300 65" version="1.1" xmlns="http://www.w3.org/2000/svg" xmlns:xlink="http://www.w3.org/1999/xlink" xml:space="preserve" xmlns:serif="http://www.serif.com/" style="fill-rule:evenodd;clip-rule:evenodd;stroke-linejoin:round;stroke-miterlimit:2;"><path d="M66.03,0c2.859,0 5.179,2.321 5.179,5.179l0,54.378c0,2.858 -2.32,5.179 -5.179,5.179l-60.851,0c-2.858,0 -5.179,-2.321 -5.179,-5.179l0,-54.378c0,-2.858 2.32,-5.179 5.179,-5.179l60.851,0Zm-28.888,32.577c-0.923,5.917 -3.535,10.144 -6.609,13.141c-3.305,3.305 -7.07,5.149 -9.914,6.225c-0.691,0.23 -0.691,1.153 -0.077,1.46c7.685,3.766 19.212,0.692 28.05,-8.069c9.222,-9.222 12.219,-21.671 7.377,-29.279c-0.614,-0.922 -1.69,-1.384 -2.766,-1.076c-4.15,1.229 -14.063,5.302 -16.061,17.598Zm-3.074,-0.461c1.998,-12.219 11.066,-17.368 16.522,-19.366c0.692,-0.23 0.692,-1.152 0.077,-1.46c-7.685,-3.765 -19.212,-0.691 -28.05,8.069c-9.222,9.222 -12.219,21.671 -7.377,29.279c0.615,0.923 1.69,1.384 2.766,1.076c4.15,-1.229 14.064,-5.302 16.062,-17.598Z" style="fill:#fff;"/><path id="SvgjsG2459" d="M80.969,47.355l0,-27.449c0,-1.651 1.274,-2.924 2.924,-2.924l10.093,0c7.735,0 12.546,4.386 12.546,11.036l0,0.094c0,7.405 -5.943,11.272 -13.206,11.272l-6.556,0l0,7.971c0,1.603 -1.273,2.877 -2.877,2.877c-1.65,0 -2.924,-1.274 -2.924,-2.877Zm5.801,-13.206l6.745,0c4.386,0 7.121,-2.452 7.121,-5.895l0,-0.094c0,-3.868 -2.782,-5.896 -7.121,-5.896l-6.745,0l0,11.885Zm36.882,16.413c-7.593,0 -13.206,-5.801 -13.206,-12.875l0,-0.095c0,-7.121 5.66,-13.017 13.3,-13.017c7.641,0 13.253,5.801 13.253,12.923l0,0.094c0,7.075 -5.66,12.97 -13.347,12.97Zm0.094,-4.999c4.622,0 7.546,-3.585 7.546,-7.876l0,-0.095c0,-4.386 -3.16,-8.018 -7.64,-8.018c-4.575,0 -7.499,3.585 -7.499,7.924l0,0.094c0,4.339 3.16,7.971 7.593,7.971Zm19.054,9.385l0,-27.26c0,-1.604 1.226,-2.877 2.83,-2.877c1.603,0 2.877,1.273 2.877,2.877l0,1.556c1.839,-2.594 4.433,-4.669 8.489,-4.669c5.848,0 11.555,4.622 11.555,12.923l0,0.094c0,8.254 -5.66,12.923 -11.555,12.923c-4.15,0 -6.744,-2.075 -8.489,-4.386l0,8.819c0,1.604 -1.274,2.83 -2.877,2.83c-1.557,0 -2.83,-1.226 -2.83,-2.83Zm12.828,-9.385c3.915,0 7.122,-3.066 7.122,-7.971l0,-0.094c0,-4.811 -3.254,-7.971 -7.122,-7.971c-3.867,0 -7.263,3.207 -7.263,7.971l0,0.094c0,4.764 3.396,7.971 7.263,7.971Zm33.916,4.905c-4.48,0 -8.725,-1.415 -12.403,-4.151c-0.661,-0.471 -1.132,-1.273 -1.132,-2.216c0,-1.51 1.226,-2.689 2.735,-2.689c0.802,0 1.321,0.236 1.698,0.519c2.735,2.17 5.66,3.396 9.244,3.396c3.584,0 5.848,-1.698 5.848,-4.15l0,-0.095c0,-2.358 -1.32,-3.631 -7.452,-5.046c-7.027,-1.698 -10.989,-3.773 -10.989,-9.857l0,-0.095c0,-5.659 4.717,-9.574 11.272,-9.574c4.151,0 7.499,1.085 10.471,3.066c0.66,0.377 1.273,1.179 1.273,2.311c0,1.509 -1.226,2.688 -2.736,2.688c-0.565,0 -1.037,-0.141 -1.509,-0.424c-2.547,-1.651 -4.999,-2.5 -7.593,-2.5c-3.396,0 -5.377,1.745 -5.377,3.915l0,0.094c0,2.547 1.51,3.679 7.877,5.188c6.98,1.698 10.564,4.197 10.564,9.668l0,0.095c0,6.178 -4.858,9.857 -11.791,9.857Zm26.317,-0.048c-4.197,0 -7.168,-1.839 -7.168,-7.31l0,-13.111l-0.944,0c-1.367,0 -2.452,-1.085 -2.452,-2.453c0,-1.367 1.085,-2.452 2.452,-2.452l0.944,0l0,-4.245c0,-1.556 1.273,-2.829 2.877,-2.829c1.556,0 2.829,1.273 2.829,2.829l0,4.245l4.481,0c1.367,0 2.499,1.085 2.499,2.452c0,1.368 -1.132,2.453 -2.499,2.453l-4.481,0l0,12.215c0,2.217 1.132,3.113 3.066,3.113c0.66,0 1.226,-0.142 1.415,-0.142c1.273,0 2.405,1.038 2.405,2.359c0,1.037 -0.707,1.886 -1.509,2.216c-1.226,0.425 -2.405,0.66 -3.915,0.66Zm22.874,0.142c-7.593,0 -13.205,-5.801 -13.205,-12.875l0,-0.095c0,-7.121 5.659,-13.017 13.3,-13.017c7.64,0 13.252,5.801 13.252,12.923l0,0.094c0,7.075 -5.659,12.97 -13.347,12.97Zm0.095,-4.999c4.622,0 7.546,-3.585 7.546,-7.876l0,-0.095c0,-4.386 -3.16,-8.018 -7.641,-8.018c-4.574,0 -7.499,3.585 -7.499,7.924l0,0.094c0,4.339 3.16,7.971 7.594,7.971Zm19.054,1.839l0,-19.714c0,-1.604 1.226,-2.877 2.829,-2.877c1.604,0 2.877,1.273 2.877,2.877l0,2.547c1.321,-3.113 3.773,-5.471 6.273,-5.471c1.792,0 2.83,1.179 2.83,2.83c0,1.509 -0.991,2.499 -2.264,2.735c-4.056,0.708 -6.839,3.82 -6.839,9.716l0,7.357c0,1.556 -1.273,2.83 -2.877,2.83c-1.556,0 -2.829,-1.226 -2.829,-2.83Zm23.77,-11.602l12.781,0c-0.378,-3.679 -2.547,-6.556 -6.32,-6.556c-3.49,0 -5.943,2.689 -6.461,6.556Zm16.082,11.461c-2.264,2.028 -5.093,3.301 -8.961,3.301c-7.216,0 -12.781,-5.235 -12.781,-12.923l0,-0.094c0,-7.122 5.047,-12.97 12.168,-12.97c7.923,0 11.838,6.509 11.838,12.263c0,1.603 -1.226,2.735 -2.688,2.735l-15.611,0c0.613,4.056 3.49,6.32 7.169,6.32c2.405,0 4.291,-0.849 5.895,-2.17c0.424,-0.33 0.802,-0.518 1.462,-0.518c1.273,0 2.264,0.99 2.264,2.311c0,0.707 -0.33,1.32 -0.755,1.745Z" style="fill:#fff;fill-rule:nonzero;"/></svg>